<?xml version="1.0" encoding="UTF-8" standalone="no"?>
<!-- Created with Inkscape (http://www.inkscape.org/) -->

<svg
   xmlns:dc="http://purl.org/dc/elements/1.1/"
   xmlns:cc="http://creativecommons.org/ns#"
   xmlns:rdf="http://www.w3.org/1999/02/22-rdf-syntax-ns#"
   xmlns:svg="http://www.w3.org/2000/svg"
   xmlns="http://www.w3.org/2000/svg"
   xmlns:xlink="http://www.w3.org/1999/xlink"
   version="1.1"
   width="600"
   height="600"
   id="svg140436">
  <defs
     id="defs140438">
    <linearGradient
       x1="849.61591"
       y1="739.59033"
       x2="529.33826"
       y2="817.93719"
       id="linearGradient37310"
       xlink:href="#linearGradient37027"
       gradientUnits="userSpaceOnUse"
       gradientTransform="matrix(0.66666666,0,0,0.66666666,35.71429,168.07648)" />
    <linearGradient
       id="linearGradient37027">
      <stop
         id="stop37029"
         style="stop-color:#67b0d4;stop-opacity:1"
         offset="0" />
      <stop
         id="stop37031"
         style="stop-color:#00405f;stop-opacity:1"
         offset="1" />
    </linearGradient>
    <linearGradient
       x1="292.60422"
       y1="702.94489"
       x2="921.41156"
       y2="620.33154"
       id="linearGradient37374"
       xlink:href="#linearGradient37352"
       gradientUnits="userSpaceOnUse"
       gradientTransform="matrix(0.66666666,0,0,0.66666666,35.71429,168.07648)" />
    <linearGradient
       id="linearGradient37352">
      <stop
         id="stop37354"
         style="stop-color:#690707;stop-opacity:1"
         offset="0" />
      <stop
         id="stop37356"
         style="stop-color:#f45c5c;stop-opacity:1"
         offset="1" />
    </linearGradient>
    <linearGradient
       x1="268.6875"
       y1="640.90625"
       x2="1254.1106"
       y2="539.82635"
       id="linearGradient37391"
       xlink:href="#linearGradient37352"
       gradientUnits="userSpaceOnUse"
       gradientTransform="matrix(0.66666666,0,0,0.66666666,35.71429,168.07648)" />
    <linearGradient
       id="linearGradient140463">
      <stop
         id="stop140465"
         style="stop-color:#690707;stop-opacity:1"
         offset="0" />
      <stop
         id="stop140467"
         style="stop-color:#f45c5c;stop-opacity:1"
         offset="1" />
    </linearGradient>
    <linearGradient
       x1="371.54645"
       y1="760.57617"
       x2="853.73425"
       y2="684.76624"
       id="linearGradient37382"
       xlink:href="#linearGradient37352"
       gradientUnits="userSpaceOnUse"
       gradientTransform="matrix(0.66666666,0,0,0.66666666,35.71429,168.07648)" />
    <linearGradient
       id="linearGradient140470">
      <stop
         id="stop140472"
         style="stop-color:#690707;stop-opacity:1"
         offset="0" />
      <stop
         id="stop140474"
         style="stop-color:#f45c5c;stop-opacity:1"
         offset="1" />
    </linearGradient>
    <linearGradient
       x1="598.10608"
       y1="422.26315"
       x2="808.4353"
       y2="450.44891"
       id="linearGradient37366"
       xlink:href="#linearGradient37352"
       gradientUnits="userSpaceOnUse"
       gradientTransform="matrix(0.66666666,0,0,0.66666666,35.71429,168.07648)" />
    <linearGradient
       id="linearGradient140477">
      <stop
         id="stop140479"
         style="stop-color:#690707;stop-opacity:1"
         offset="0" />
      <stop
         id="stop140481"
         style="stop-color:#f45c5c;stop-opacity:1"
         offset="1" />
    </linearGradient>
    <linearGradient
       x1="75.690323"
       y1="519.89783"
       x2="519.29205"
       y2="384.80066"
       id="linearGradient37358"
       xlink:href="#linearGradient37352"
       gradientUnits="userSpaceOnUse"
       gradientTransform="matrix(0.66666666,0,0,0.66666666,35.71429,168.07648)"
       spreadMethod="reflect" />
    <linearGradient
       id="linearGradient140484">
      <stop
         id="stop140486"
         style="stop-color:#690707;stop-opacity:1"
         offset="0" />
      <stop
         id="stop140488"
         style="stop-color:#f45c5c;stop-opacity:1"
         offset="1" />
    </linearGradient>
    <radialGradient
       cx="474.57889"
       cy="380.68512"
       r="299.9122"
       fx="474.57889"
       fy="380.68512"
       id="radialGradient37033"
       xlink:href="#linearGradient37027"
       gradientUnits="userSpaceOnUse"
       gradientTransform="matrix(0.79504019,0.00253735,-0.0025141,0.78775532,-24.25199,123.90949)" />
    <linearGradient
       id="linearGradient140491">
      <stop
         id="stop140493"
         style="stop-color:#67b0d4;stop-opacity:1"
         offset="0" />
      <stop
         id="stop140495"
         style="stop-color:#00405f;stop-opacity:1"
         offset="1" />
    </linearGradient>
    <radialGradient
       cx="476.57541"
       cy="438.18167"
       r="450"
       fx="476.57541"
       fy="438.18167"
       id="radialGradient37318"
       xlink:href="#linearGradient37312"
       gradientUnits="userSpaceOnUse"
       gradientTransform="matrix(1,0,0,0.99854167,0,0.65720703)" />
    <linearGradient
       id="linearGradient37312">
      <stop
         id="stop37314"
         style="stop-color:#6dabce;stop-opacity:1"
         offset="0" />
      <stop
         id="stop37320"
         style="stop-color:#81b774;stop-opacity:1"
         offset="0.72330099" />
      <stop
         id="stop37316"
         style="stop-color:#356951;stop-opacity:1"
         offset="1" />
    </linearGradient>
    <radialGradient
       cx="476.57541"
       cy="438.18167"
       r="450"
       fx="476.57541"
       fy="438.18167"
       id="radialGradient140514"
       xlink:href="#linearGradient37312"
       gradientUnits="userSpaceOnUse"
       gradientTransform="matrix(0.66666666,0,0,0.66569444,35.71429,168.51461)" />
    <linearGradient
       x1="849.61591"
       y1="739.59033"
       x2="529.33826"
       y2="817.93719"
       id="linearGradient37310-5-4-8-2"
       xlink:href="#linearGradient37027-7-5-6-3"
       gradientUnits="userSpaceOnUse"
       gradientTransform="matrix(0.66658204,0,0,0.66658204,35.71429,168.15162)" />
    <linearGradient
       id="linearGradient37027-7-5-6-3">
      <stop
         id="stop37029-1-7-3-5"
         style="stop-color:#96e1eb;stop-opacity:1"
         offset="0" />
      <stop
         id="stop37031-9-8-5-3"
         style="stop-color:#00a2f0;stop-opacity:1"
         offset="1" />
    </linearGradient>
    <linearGradient
       x1="292.60422"
       y1="702.94489"
       x2="921.41156"
       y2="620.33154"
       id="linearGradient37374-9-7-6-7"
       xlink:href="#linearGradient37352-0-9-2-8"
       gradientUnits="userSpaceOnUse"
       gradientTransform="matrix(0.66658204,0,0,0.66658204,35.71429,168.15162)" />
    <linearGradient
       id="linearGradient37352-0-9-2-8">
      <stop
         id="stop37354-9-8-6-4"
         style="stop-color:#091442;stop-opacity:1"
         offset="0" />
      <stop
         id="stop37356-6-8-6-6"
         style="stop-color:#12688f;stop-opacity:1"
         offset="1" />
    </linearGradient>
    <linearGradient
       x1="268.6875"
       y1="640.90625"
       x2="1254.1106"
       y2="539.82635"
       id="linearGradient37391-7-7-0-8"
       xlink:href="#linearGradient37352-0-9-2-8"
       gradientUnits="userSpaceOnUse"
       gradientTransform="matrix(0.66658204,0,0,0.66658204,35.71429,168.15162)" />
    <linearGradient
       id="linearGradient141048">
      <stop
         id="stop141050"
         style="stop-color:#091442;stop-opacity:1"
         offset="0" />
      <stop
         id="stop141052"
         style="stop-color:#12688f;stop-opacity:1"
         offset="1" />
    </linearGradient>
    <linearGradient
       x1="371.54645"
       y1="760.57617"
       x2="853.73425"
       y2="684.76624"
       id="linearGradient37382-5-7-6-3"
       xlink:href="#linearGradient37352-0-9-2-8"
       gradientUnits="userSpaceOnUse"
       gradientTransform="matrix(0.66658204,0,0,0.66658204,35.71429,168.15162)" />
    <linearGradient
       id="linearGradient141055">
      <stop
         id="stop141057"
         style="stop-color:#091442;stop-opacity:1"
         offset="0" />
      <stop
         id="stop141059"
         style="stop-color:#12688f;stop-opacity:1"
         offset="1" />
    </linearGradient>
    <linearGradient
       x1="598.10608"
       y1="422.26315"
       x2="808.4353"
       y2="450.44891"
       id="linearGradient37366-7-5-3-37"
       xlink:href="#linearGradient37352-0-9-2-8"
       gradientUnits="userSpaceOnUse"
       gradientTransform="matrix(0.66658204,0,0,0.66658204,35.71429,168.15162)" />
    <linearGradient
       id="linearGradient141062">
      <stop
         id="stop141064"
         style="stop-color:#091442;stop-opacity:1"
         offset="0" />
      <stop
         id="stop141066"
         style="stop-color:#12688f;stop-opacity:1"
         offset="1" />
    </linearGradient>
    <linearGradient
       x1="75.690323"
       y1="519.89783"
       x2="519.29205"
       y2="384.80066"
       id="linearGradient37358-5-7-7-18"
       xlink:href="#linearGradient37352-0-9-2-8"
       gradientUnits="userSpaceOnUse"
       gradientTransform="matrix(0.66658204,0,0,0.66658204,35.71429,168.15162)"
       spreadMethod="reflect" />
    <linearGradient
       id="linearGradient141069">
      <stop
         id="stop141071"
         style="stop-color:#091442;stop-opacity:1"
         offset="0" />
      <stop
         id="stop141073"
         style="stop-color:#12688f;stop-opacity:1"
         offset="1" />
    </linearGradient>
    <radialGradient
       cx="474.57889"
       cy="380.68512"
       r="299.9122"
       fx="474.57889"
       fy="380.68512"
       id="radialGradient37033-3-4-3-8"
       xlink:href="#linearGradient37027-7-5-6-3"
       gradientUnits="userSpaceOnUse"
       gradientTransform="matrix(0.79493897,0.00253702,-0.00251378,0.78765555,-24.242673,123.98995)" />
    <linearGradient
       id="linearGradient141076">
      <stop
         id="stop141078"
         style="stop-color:#96e1eb;stop-opacity:1"
         offset="0" />
      <stop
         id="stop141080"
         style="stop-color:#00a2f0;stop-opacity:1"
         offset="1" />
    </linearGradient>
    <radialGradient
       cx="476.57541"
       cy="438.18167"
       r="450"
       fx="476.57541"
       fy="438.18167"
       id="radialGradient137080"
       xlink:href="#linearGradient37312-0-6-6-4"
       gradientUnits="userSpaceOnUse"
       gradientTransform="matrix(0.12313159,0,0,0.12295204,1068.2395,70.166591)" />
    <linearGradient
       id="linearGradient37312-0-6-6-4">
      <stop
         id="stop37314-3-5-1-6"
         style="stop-color:#6dabce;stop-opacity:1"
         offset="0" />
      <stop
         id="stop37320-2-1-5-7"
         style="stop-color:#50afdb;stop-opacity:1"
         offset="0.72330099" />
      <stop
         id="stop37316-6-9-9-9"
         style="stop-color:#4078a0;stop-opacity:1"
         offset="1" />
    </linearGradient>
    <radialGradient
       cx="476.57541"
       cy="438.18167"
       r="450"
       fx="476.57541"
       fy="438.18167"
       id="radialGradient141099"
       xlink:href="#linearGradient37312-0-6-6-4"
       gradientUnits="userSpaceOnUse"
       gradientTransform="matrix(0.66658204,0,0,0.66561003,35.71429,168.58963)" />
  </defs>
  <metadata
     id="metadata140441">
    <rdf:RDF>
      <cc:Work
         rdf:about="">
        <dc:format>image/svg+xml</dc:format>
        <dc:type
           rdf:resource="http://purl.org/dc/dcmitype/StillImage" />
        <dc:title></dc:title>
      </cc:Work>
    </rdf:RDF>
  </metadata>
  <g
     transform="translate(-35.71429,-168.07648)"
     id="layer1">
    <path
       d="m 312.48653,169.02651 c -154.82606,11.83445 -276.77224,141.2236 -276.77224,299.087 0,19.94252 1.98732,39.43015 5.639863,58.28444 19.389257,-12.27918 40.164934,-26.2298 61.576707,-41.70326 -0.59983,-5.47708 -0.59983,-11.00661 -0.59983,-16.58118 0,-114.37557 82.29771,-209.53587 190.91241,-229.47087 8.62166,-21.37344 14.80559,-46.14244 19.20195,-69.61613 z m 64.33331,1.93854 c 11.07346,26.62521 20.37777,51.89367 27.86637,74.24036 95.1636,29.42359 164.29495,118.08262 164.29495,222.90924 0,9.79012 -0.59983,19.44111 -1.72477,28.91254 21.76473,48.79986 25.32687,88.65676 10.99443,142.23263 1.20073,0.18785 2.32567,0.37517 3.48797,0.54028 34.01457,-48.64108 53.9755,-107.83186 53.9755,-171.68708 0,-151.70817 -112.62346,-277.09712 -258.81921,-297.14959 z M 60.897696,588.59922 C 107.3034,694.27105 212.86432,768.07648 335.67666,768.07648 c 69.32841,0 133.13875,-23.52128 183.93432,-63.01287 -8.7413,-0.37516 -16.14598,-1.39134 -21.49784,-3.66754 -7.99748,3.87563 -16.63104,7.5088 -26.30998,10.58208 -50.69379,15.1206 -110.87217,16.192 -160.74906,-0.1126 4.26049,-0.66003 10.63173,-1.83 19.10289,-2.9399 -10.61278,-1.93118 -20.24786,-4.10944 -28.80942,-6.06163 -43.64803,-9.9619 -101.35565,-9.16351 -103.82262,2.56127 -12.76521,-24.0236 -22.29419,-51.1291 -26.82751,-71.28308 0,-0.1126 0.59983,-0.22467 0.59983,-0.4201 -11.97917,-11.89459 -22.6818,-25.07491 -31.86972,-39.32848 -25.90829,-1.85999 -52.276726,-3.83941 -78.552046,-5.78938 z"
       id="path36215-9-3-0-3"
       style="fill:url(#radialGradient141099);fill-opacity:1;fill-rule:evenodd;stroke:none;display:inline" />
    <path
       d="m 305.63728,272.18023 c -95.45972,14.35484 -169.05943,96.28978 -169.97433,195.91227 0,5.82544 0,11.58754 0.60037,17.29004 55.99964,-45.38833 122.11832,-112.17051 162.54203,-197.64224 2.47455,-5.23709 4.74013,-10.4253 6.83193,-15.56007 z m 107.15088,13.22698 c 26.45289,23.40364 82.13042,79.86159 117.94826,167.18753 1.68795,4.03739 3.22594,7.94788 4.73687,11.76933 -2.21252,-80.63292 -52.15708,-149.4165 -122.69704,-178.95686 z m -16.72307,6.91622 27.78571,274.31914 c 0,0 0,0 0,0 0.59983,-0.0325 0.90028,-0.0325 0.82503,-0.0325 0.67507,-0.0379 1.31225,8.6e-4 1.98733,0.11261 10.92025,-82.04575 15.08221,-164.66545 -16.49408,-246.21912 -5.22032,-13.17377 -10.26847,-22.24578 -14.1224,-28.20472 z M 170.11656,582.16134 c 8.98492,13.2364 19.50295,25.34689 31.32674,36.05803 l 0.78767,-5.02146 c 0,-1.71757 1.27544,-3.31859 2.62558,-4.34949 1.38642,-1.03118 3.22487,-1.48874 4.91986,-1.22997 0.89974,-1.03122 2.09776,-1.77381 3.41001,-2.10728 9.74985,-2.43004 35.29542,-8.62783 66.16038,-15.35274 z"
       id="path3150-9-3-0-2"
       style="fill:url(#radialGradient37033-3-4-3-8);fill-opacity:1;fill-rule:nonzero;stroke:none;display:inline" />
    <path
       d="m 335.48936,168.15162 c -1.08705,24.23089 -6.49467,71.34236 -30.66141,122.44261 C 233.96535,440.4175 86.528804,532.61674 47.297719,555.14408 l 26.3235,1.6276 c 75.826321,-5.63343 136.755561,4.97339 209.704021,13.10241 l 121.86389,7.62378 -26.22769,-283.85921 c -0.67507,-0.80998 -1.20073,-1.77744 -1.57535,-2.81247 l -41.6607,-122.6717 0,0 z m 15.68258,95.65412 c 0,0 -5.09958,63.95127 -32.26544,130.27541 -32.66443,79.76214 -95.35092,128.7714 -101.06982,133.12905 5.4596,-4.48147 50.631,-42.89868 90.8609,-124.27602 31.01761,-62.72985 42.47436,-139.12844 42.47436,-139.12844 z m 25.10058,131.00483 c -1.08705,12.22293 -4.5003,41.59704 -13.39156,69.32439 -18.15875,56.45065 -58.54889,88.56825 -63.53588,92.36273 4.74013,-3.70856 42.27136,-34.89249 64.55634,-107.0483 8.51934,-27.59082 11.40369,-45.88935 12.3711,-54.63882 z"
       id="path37344-4-0-4-9"
       style="fill:url(#linearGradient37358-5-7-7-18);fill-opacity:1;stroke:none;display:inline" />
    <path
       d="m 342.50914,168.15162 34.18293,100.61221 -2.09992,-22.85141 -29.7909,-77.7608 z"
       id="path37342-7-9-3-0"
       style="fill:#115b83;fill-opacity:1;stroke:none;display:inline" />
    <path
       d="m 383.9219,238.58044 -2.92441,6.06163 34.93325,378.5147 6.12384,-8.37453 z"
       id="path37340-9-0-9-39"
       style="fill:#091442;fill-opacity:1;stroke:none;display:inline" />
    <path
       d="m 393.91644,278.45011 c 0,0 44.18452,43.20877 47.22532,187.26795 1.91262,90.51447 -17.43388,136.9408 -17.43388,136.9408 52.80563,-51.55726 138.25349,-36.89118 138.25349,-36.89118 0,0 -7.28829,-37.26109 -37.39318,-110.65265 C 476.95635,339.03511 393.91644,278.45011 393.91644,278.45011 z"
       id="path37336-4-9-5-6"
       style="fill:url(#linearGradient37366-7-5-3-37);fill-opacity:1;stroke:none;display:inline" />
    <path
       d="m 37.525673,562.14313 -0.825026,0.53973 -0.675077,3.01851 370.55485,27.10116 -0.71243,-7.66578 z"
       id="path37332-7-6-2-8"
       style="fill:#091442;fill-opacity:1;stroke:none;display:inline" />
    <path
       d="m 563.00024,571.30891 c -0.60037,5.27904 -7.92602,33.0889 -105.778,65.82468 -108.83992,36.41197 -253.19125,11.33208 -253.19125,11.33208 l 9.30972,24.97601 c 2.21252,-9.5273 52.50896,-6.26086 91.90246,1.83368 41.3045,8.48589 109.74237,21.68012 192.35351,-18.03955 44.42434,-21.36336 55.15674,-20.01826 55.15674,-20.01826 7.45883,-22.76943 9.62751,-44.50965 10.24682,-65.90832 z"
       id="path37330-4-9-5-5"
       style="fill:url(#linearGradient37382-5-7-6-3);fill-opacity:1;stroke:none;display:inline" />
    <path
       d="m 535.21074,571.57926 c -19.0049,-3.8e-4 -45.69544,2.47129 -71.00878,13.39465 50.65753,-2.40379 75.01049,2.39231 75.01049,2.39231 0.82449,0.18785 1.57427,0.54027 2.28669,0.93373 1.91262,-1.53004 3.60003,-2.97362 5.04005,-4.35544 5.34049,-5.0631 7.85996,-8.97343 9.00061,-11.39438 -4.62049,-0.48018 -11.6706,-0.97878 -20.31444,-0.97878 z m -235.40388,20.99742 c -39.25382,8.18169 -73.33065,16.48666 -84.99258,19.39386 l 2.58769,7.18625 c 13.13279,-2.36248 73.67009,-13.11785 138.9448,-22.45567 l -56.55561,-4.12748 z"
       id="path37328-0-3-4-72"
       style="fill:url(#linearGradient37391-7-7-0-8);fill-opacity:1;stroke:none;display:inline" />
    <path
       d="m 492.65734,591.86869 c -12.42416,-0.0162 -27.43492,0.42009 -45.11782,1.75118 -6.79891,4.21744 -13.32064,9.22912 -19.35407,15.12358 0,0.0747 0,0.1126 0,0.18786 l 0.59983,5.74704 c 0.60036,1.84879 0,3.88148 -1.3875,5.39349 l -5.88022,8.01978 c -2.212,1.20744 -5.21977,1.34993 -7.63802,0.37462 -2.40038,-0.98257 -4.07805,-3.05233 -4.25832,-5.26146 l -2.32459,-25.51785 c -82.0032,10.10893 -173.54079,26.38598 -188.38698,29.0592 l -2.47509,15.93502 c 30.32631,4.10939 115.86349,13.21221 195.3261,-1.81128 19.01248,-4.34342 35.70361,-8.91896 50.18492,-13.43529 35.4443,-12.31562 57.87544,-23.84761 71.90797,-33.32944 -6.7426,-0.88127 -20.24677,-2.20873 -40.95261,-2.22373 z"
       id="path37326-0-6-8-8"
       style="fill:url(#linearGradient37374-9-7-6-7);fill-opacity:1;stroke:none;display:inline" />
    <path
       d="m 208.79764,614.19909 -4.07642,26.78859 c 0.59982,0.0747 2.02521,0.37461 4.79642,0.74999 l 2.77338,-17.81028 z"
       id="path4203-0-9-3-2"
       style="fill:#091442;fill-opacity:1;stroke:none;display:inline" />
    <path
       d="m 581.01499,646.83071 c -10.12826,-2.02852 -24.14833,-2.23857 -41.88158,3.46122 -40.34791,12.96698 -46.97791,31.93143 -105.00439,51.45137 -34.50126,11.60854 -93.19848,11.30327 -93.19848,11.30327 0,0 58.97494,13.42562 127.74195,-8.69739 14.68107,-4.72107 27.12363,-10.22435 38.08883,-16.72145 5.93815,-3.52857 11.55581,-6.62757 16.9066,-9.528 22.43655,-12.15039 43.28856,-23.52317 76.8511,-23.14444 0,0 -5.94032,-4.96143 -17.53565,-7.68316 -0.67453,-0.1126 -1.31225,-0.30046 -1.98678,-0.4201 z m -2.62504,32.89055 c -19.56195,-4.13966 -44.58566,-2.65877 -70.70669,16.58919 19.23984,6.42473 88.58664,-9.23247 109.97135,1.58256 0,0 -15.65119,-13.18141 -39.26466,-18.17402 z"
       id="path4179-0-5-6-7"
       style="fill:url(#linearGradient37310-5-4-8-2);fill-opacity:1;stroke:none;display:inline" />
  </g>
</svg>
